<svg width="2634" height="456" viewBox="0 0 2634 456" fill="none" xmlns="http://www.w3.org/2000/svg">
<path d="M62.2394 146L301.342 280.442L240.103 319.226L0.999899 184.785L62.2394 146Z" fill="#A94646"/>
<rect width="243.649" height="81.5303" transform="matrix(-0.840191 0.54229 -0.874966 -0.484185 301.988 279.858)" fill="#A94646"/>
<path d="M61.897 59L301 193.442L239.76 232.226L0.657431 97.7847L61.897 59Z" fill="#A94646"/>
<path d="M376.66 265L302.04 83H323.62L389.4 246.28L456.22 83H476.5L400.84 265H376.66ZM497.485 265V83H517.505V247.06H625.925V265H497.485ZM744.359 252L673.119 106.14V265H654.399V83H682.479L744.619 212.22L806.499 83H834.579V265H815.599V105.88L744.359 252ZM979.015 265H958.735L919.475 83H939.755L970.695 233.28L1015.68 83H1035.18L1080.16 232.76L1111.36 83H1130.86L1091.6 265H1071.32L1025.3 110.82L979.015 265ZM1159.67 265V83H1289.93V100.68H1179.69V164.38H1251.71V181.8H1179.69V247.32H1290.97V265H1159.67ZM1319.89 83H1393.73C1411.23 83 1425.19 87.2467 1435.59 95.74C1445.99 104.233 1451.19 115.587 1451.19 129.8C1451.19 139.16 1448.67 147.307 1443.65 154.24C1438.79 161.173 1432.03 166.46 1423.37 170.1C1434.29 173.393 1442.87 178.94 1449.11 186.74C1455.52 194.367 1458.73 203.38 1458.73 213.78C1458.73 229.38 1453.01 241.86 1441.57 251.22C1430.3 260.407 1415.39 265 1396.85 265H1319.89V83ZM1392.69 100.42H1339.91V162.3H1392.69C1404.47 162.3 1413.83 159.527 1420.77 153.98C1427.87 148.26 1431.43 140.72 1431.43 131.36C1431.43 122 1427.87 114.547 1420.77 109C1413.83 103.28 1404.47 100.42 1392.69 100.42ZM1395.29 247.58C1408.29 247.58 1418.69 244.46 1426.49 238.22C1434.46 231.98 1438.45 223.66 1438.45 213.26C1438.45 202.86 1434.46 194.54 1426.49 188.3C1418.69 182.06 1408.29 178.94 1395.29 178.94H1339.91V247.58H1395.29ZM1473.61 233.8L1486.87 220.02C1496.23 229.9 1506.19 237.44 1516.77 242.64C1527.51 247.667 1538.78 250.18 1550.57 250.18C1564.78 250.18 1576.48 246.8 1585.67 240.04C1594.85 233.28 1599.45 224.7 1599.45 214.3C1599.45 204.94 1596.15 197.747 1589.57 192.72C1583.15 187.693 1572.49 183.967 1557.59 181.54L1531.33 177.38C1513.82 174.607 1500.91 169.493 1492.59 162.04C1484.27 154.413 1480.11 144.187 1480.11 131.36C1480.11 116.28 1486 104.06 1497.79 94.7C1509.57 85.34 1525 80.66 1544.07 80.66C1556.72 80.66 1569.29 82.74 1581.77 86.9C1594.25 91.06 1605.6 97.04 1615.83 104.84L1604.39 120.44C1594.51 112.987 1584.45 107.353 1574.23 103.54C1564 99.7267 1553.69 97.82 1543.29 97.82C1530.29 97.82 1519.71 100.853 1511.57 106.92C1503.59 112.813 1499.61 120.44 1499.61 129.8C1499.61 138.293 1502.47 144.793 1508.19 149.3C1513.91 153.807 1523.35 157.1 1536.53 159.18L1562.53 163.34C1582.29 166.633 1596.67 172.267 1605.69 180.24C1614.87 188.213 1619.47 199.22 1619.47 213.26C1619.47 221.233 1617.73 228.6 1614.27 235.36C1610.97 241.947 1606.21 247.667 1599.97 252.52C1593.9 257.2 1586.53 260.927 1577.87 263.7C1569.37 266.3 1560.01 267.6 1549.79 267.6C1535.4 267.6 1521.53 264.74 1508.19 259.02C1495.01 253.127 1483.49 244.72 1473.61 233.8ZM1646.66 265V83H1666.68V164.38H1772.5V83H1792.52V265H1772.5V182.32H1666.68V265H1646.66ZM2011.4 174C2011.4 187 2008.98 199.307 2004.12 210.92C1999.27 222.36 1992.6 232.327 1984.1 240.82C1975.78 249.14 1965.9 255.727 1954.46 260.58C1943.02 265.433 1930.8 267.86 1917.8 267.86C1904.8 267.86 1892.5 265.433 1880.88 260.58C1869.44 255.727 1859.48 249.14 1850.98 240.82C1842.66 232.327 1836.08 222.36 1831.22 210.92C1826.37 199.307 1823.94 187 1823.94 174C1823.94 161 1826.37 148.78 1831.22 137.34C1836.08 125.727 1842.66 115.76 1850.98 107.44C1859.48 98.9467 1869.44 92.2733 1880.88 87.42C1892.5 82.5667 1904.8 80.14 1917.8 80.14C1930.8 80.14 1943.02 82.5667 1954.46 87.42C1965.9 92.2733 1975.78 98.9467 1984.1 107.44C1992.6 115.76 1999.27 125.727 2004.12 137.34C2008.98 148.78 2011.4 161 2011.4 174ZM1991.12 174C1991.12 163.427 1989.22 153.547 1985.4 144.36C1981.59 135 1976.39 127.027 1969.8 120.44C1963.39 113.68 1955.68 108.393 1946.66 104.58C1937.65 100.593 1928.03 98.6 1917.8 98.6C1907.4 98.6 1897.7 100.593 1888.68 104.58C1879.67 108.393 1871.87 113.68 1865.28 120.44C1858.87 127.027 1853.76 135 1849.94 144.36C1846.13 153.547 1844.22 163.427 1844.22 174C1844.22 184.573 1846.13 194.453 1849.94 203.64C1853.76 212.827 1858.87 220.8 1865.28 227.56C1871.87 234.32 1879.67 239.693 1888.68 243.68C1897.7 247.493 1907.4 249.4 1917.8 249.4C1928.03 249.4 1937.65 247.493 1946.66 243.68C1955.68 239.693 1963.39 234.32 1969.8 227.56C1976.39 220.8 1981.59 212.827 1985.4 203.64C1989.22 194.453 1991.12 184.573 1991.12 174ZM2042.76 265V83H2121.8C2139.48 83 2153.69 87.8533 2164.44 97.56C2175.19 107.093 2180.56 119.747 2180.56 135.52C2180.56 151.293 2175.1 164.033 2164.18 173.74C2153.43 183.447 2139.31 188.3 2121.8 188.3H2062.78V265H2042.76ZM2120.24 100.94H2062.78V170.88H2120.24C2132.55 170.88 2142.34 167.76 2149.62 161.52C2156.9 155.107 2160.54 146.527 2160.54 135.78C2160.54 125.033 2156.9 116.54 2149.62 110.3C2142.34 104.06 2132.55 100.94 2120.24 100.94ZM2196.48 233.8L2209.74 220.02C2219.1 229.9 2229.06 237.44 2239.64 242.64C2250.38 247.667 2261.65 250.18 2273.44 250.18C2287.65 250.18 2299.35 246.8 2308.54 240.04C2317.72 233.28 2322.32 224.7 2322.32 214.3C2322.32 204.94 2319.02 197.747 2312.44 192.72C2306.02 187.693 2295.36 183.967 2280.46 181.54L2254.2 177.38C2236.69 174.607 2223.78 169.493 2215.46 162.04C2207.14 154.413 2202.98 144.187 2202.98 131.36C2202.98 116.28 2208.87 104.06 2220.66 94.7C2232.44 85.34 2247.87 80.66 2266.94 80.66C2279.59 80.66 2292.16 82.74 2304.64 86.9C2317.12 91.06 2328.47 97.04 2338.7 104.84L2327.26 120.44C2317.38 112.987 2307.32 107.353 2297.1 103.54C2286.87 99.7267 2276.56 97.82 2266.16 97.82C2253.16 97.82 2242.58 100.853 2234.44 106.92C2226.46 112.813 2222.48 120.44 2222.48 129.8C2222.48 138.293 2225.34 144.793 2231.06 149.3C2236.78 153.807 2246.22 157.1 2259.4 159.18L2285.4 163.34C2305.16 166.633 2319.54 172.267 2328.56 180.24C2337.74 188.213 2342.34 199.22 2342.34 213.26C2342.34 221.233 2340.6 228.6 2337.14 235.36C2333.84 241.947 2329.08 247.667 2322.84 252.52C2316.77 257.2 2309.4 260.927 2300.74 263.7C2292.24 266.3 2282.88 267.6 2272.66 267.6C2258.27 267.6 2244.4 264.74 2231.06 259.02C2217.88 253.127 2206.36 244.72 2196.48 233.8Z" fill="black"/>
<path d="M1024.45 339.856H1041.44V326.176C1041.44 319.168 1043.36 313.792 1047.2 310.048C1051.04 306.208 1056.56 304.288 1063.76 304.288C1065.68 304.288 1067.41 304.384 1068.94 304.576C1070.48 304.768 1071.97 305.104 1073.41 305.584V315.088C1071.78 314.608 1070.29 314.272 1068.94 314.08C1067.6 313.792 1066.11 313.648 1064.48 313.648C1060.26 313.648 1057.09 314.704 1054.98 316.816C1052.96 318.832 1051.95 322.048 1051.95 326.464V339.856H1073.41V348.928H1051.95V412H1041.44V348.928H1024.45V339.856ZM1077.82 375.856C1077.82 370.672 1078.78 365.776 1080.7 361.168C1082.62 356.56 1085.21 352.576 1088.48 349.216C1091.84 345.856 1095.77 343.216 1100.29 341.296C1104.8 339.376 1109.6 338.416 1114.69 338.416C1119.77 338.416 1124.53 339.376 1128.94 341.296C1133.45 343.216 1137.34 345.856 1140.61 349.216C1143.97 352.576 1146.61 356.56 1148.53 361.168C1150.45 365.776 1151.41 370.672 1151.41 375.856C1151.41 381.136 1150.45 386.08 1148.53 390.688C1146.61 395.296 1143.97 399.28 1140.61 402.64C1137.34 406 1133.45 408.64 1128.94 410.56C1124.53 412.48 1119.77 413.44 1114.69 413.44C1109.6 413.44 1104.8 412.48 1100.29 410.56C1095.77 408.64 1091.84 406 1088.48 402.64C1085.21 399.28 1082.62 395.296 1080.7 390.688C1078.78 386.08 1077.82 381.136 1077.82 375.856ZM1114.69 403.936C1118.33 403.936 1121.74 403.216 1124.91 401.776C1128.17 400.336 1130.96 398.368 1133.26 395.872C1135.66 393.28 1137.53 390.304 1138.88 386.944C1140.22 383.488 1140.89 379.792 1140.89 375.856C1140.89 371.92 1140.22 368.272 1138.88 364.912C1137.53 361.456 1135.66 358.48 1133.26 355.984C1130.96 353.488 1128.17 351.52 1124.91 350.08C1121.74 348.64 1118.33 347.92 1114.69 347.92C1111.04 347.92 1107.58 348.64 1104.32 350.08C1101.15 351.52 1098.37 353.488 1095.97 355.984C1093.66 358.48 1091.79 361.456 1090.35 364.912C1089.01 368.272 1088.33 371.92 1088.33 375.856C1088.33 379.792 1089.01 383.488 1090.35 386.944C1091.69 390.304 1093.52 393.28 1095.82 395.872C1098.22 398.368 1101.05 400.336 1104.32 401.776C1107.58 403.216 1111.04 403.936 1114.69 403.936ZM1166.21 412V339.856H1176.87V350.08C1178.98 346.336 1181.76 343.456 1185.22 341.44C1188.68 339.328 1192.61 338.272 1197.03 338.272C1198.37 338.272 1199.57 338.368 1200.63 338.56C1201.68 338.656 1202.74 338.896 1203.8 339.28V349.072C1202.55 348.688 1201.3 348.4 1200.05 348.208C1198.8 347.92 1197.56 347.776 1196.31 347.776C1191.89 347.776 1188 349.072 1184.64 351.664C1181.28 354.16 1178.69 357.808 1176.87 362.608V412H1166.21ZM1246.93 412V311.2L1257.59 308.752V348.352C1260.37 345.088 1263.68 342.64 1267.52 341.008C1271.36 339.28 1275.64 338.416 1280.34 338.416C1288.5 338.416 1295.17 341.008 1300.36 346.192C1305.54 351.376 1308.13 358.096 1308.13 366.352V412H1297.62V368.512C1297.62 362.176 1295.8 357.136 1292.15 353.392C1288.5 349.648 1283.6 347.776 1277.46 347.776C1273.14 347.776 1269.25 348.736 1265.8 350.656C1262.44 352.576 1259.7 355.312 1257.59 358.864V412H1246.93ZM1348.71 413.296C1340.84 413.296 1334.41 411.28 1329.42 407.248C1324.52 403.216 1322.07 397.984 1322.07 391.552C1322.07 384.832 1324.67 379.504 1329.85 375.568C1335.03 371.536 1342.04 369.52 1350.87 369.52C1354.71 369.52 1358.41 369.952 1361.96 370.816C1365.61 371.68 1368.97 372.88 1372.04 374.416V364.912C1372.04 359.152 1370.41 354.832 1367.15 351.952C1363.88 348.976 1359.13 347.488 1352.89 347.488C1349.34 347.488 1345.74 348.016 1342.09 349.072C1338.54 350.032 1334.6 351.616 1330.28 353.824L1326.25 345.616C1331.43 343.12 1336.23 341.296 1340.65 340.144C1345.07 338.992 1349.48 338.416 1353.9 338.416C1363.02 338.416 1370.03 340.576 1374.92 344.896C1379.91 349.216 1382.41 355.408 1382.41 363.472V412H1372.04V404.944C1368.78 407.728 1365.18 409.84 1361.24 411.28C1357.4 412.624 1353.23 413.296 1348.71 413.296ZM1332.3 391.264C1332.3 395.296 1333.98 398.608 1337.34 401.2C1340.79 403.696 1345.21 404.944 1350.59 404.944C1354.91 404.944 1358.84 404.272 1362.39 402.928C1365.95 401.584 1369.16 399.472 1372.04 396.592V383.056C1369.07 381.04 1365.85 379.6 1362.39 378.736C1359.03 377.776 1355.29 377.296 1351.16 377.296C1345.4 377.296 1340.79 378.592 1337.34 381.184C1333.98 383.68 1332.3 387.04 1332.3 391.264ZM1400.21 441.52V339.856H1410.72V347.632C1413.8 344.656 1417.3 342.448 1421.24 341.008C1425.27 339.472 1429.54 338.704 1434.05 338.704C1439.14 338.704 1443.89 339.664 1448.31 341.584C1452.72 343.504 1456.56 346.144 1459.83 349.504C1463.09 352.768 1465.64 356.704 1467.46 361.312C1469.38 365.824 1470.34 370.672 1470.34 375.856C1470.34 381.04 1469.38 385.936 1467.46 390.544C1465.64 395.152 1463.09 399.136 1459.83 402.496C1456.56 405.76 1452.68 408.352 1448.16 410.272C1443.75 412.192 1439 413.152 1433.91 413.152C1429.68 413.152 1425.6 412.432 1421.67 410.992C1417.73 409.552 1414.13 407.488 1410.87 404.8V441.52H1400.21ZM1433.04 348.064C1428.53 348.064 1424.31 348.976 1420.37 350.8C1416.53 352.528 1413.36 354.976 1410.87 358.144V393.856C1413.36 396.928 1416.58 399.376 1420.52 401.2C1424.45 402.928 1428.63 403.792 1433.04 403.792C1440.63 403.792 1446.96 401.152 1452.05 395.872C1457.24 390.496 1459.83 383.872 1459.83 376C1459.83 372.064 1459.11 368.416 1457.67 365.056C1456.32 361.6 1454.45 358.624 1452.05 356.128C1449.65 353.632 1446.82 351.664 1443.56 350.224C1440.29 348.784 1436.79 348.064 1433.04 348.064ZM1485.15 441.52V339.856H1495.66V347.632C1498.73 344.656 1502.24 342.448 1506.17 341.008C1510.21 339.472 1514.48 338.704 1518.99 338.704C1524.08 338.704 1528.83 339.664 1533.25 341.584C1537.66 343.504 1541.5 346.144 1544.77 349.504C1548.03 352.768 1550.57 356.704 1552.4 361.312C1554.32 365.824 1555.28 370.672 1555.28 375.856C1555.28 381.04 1554.32 385.936 1552.4 390.544C1550.57 395.152 1548.03 399.136 1544.77 402.496C1541.5 405.76 1537.61 408.352 1533.1 410.272C1528.69 412.192 1523.93 413.152 1518.85 413.152C1514.62 413.152 1510.54 412.432 1506.61 410.992C1502.67 409.552 1499.07 407.488 1495.81 404.8V441.52H1485.15ZM1517.98 348.064C1513.47 348.064 1509.25 348.976 1505.31 350.8C1501.47 352.528 1498.3 354.976 1495.81 358.144V393.856C1498.3 396.928 1501.52 399.376 1505.45 401.2C1509.39 402.928 1513.57 403.792 1517.98 403.792C1525.57 403.792 1531.9 401.152 1536.99 395.872C1542.17 390.496 1544.77 383.872 1544.77 376C1544.77 372.064 1544.05 368.416 1542.61 365.056C1541.26 361.6 1539.39 358.624 1536.99 356.128C1534.59 353.632 1531.76 351.664 1528.49 350.224C1525.23 348.784 1521.73 348.064 1517.98 348.064ZM1584.12 421.36L1588.3 411.856L1558.92 339.856H1570.73L1594.06 399.04L1619.26 339.856H1630.78L1594.92 422.8C1591.85 429.712 1588.44 434.704 1584.7 437.776C1580.96 440.848 1576.2 442.384 1570.44 442.384C1569.1 442.384 1567.8 442.288 1566.56 442.096C1565.4 442 1564.44 441.856 1563.68 441.664V432.016C1564.64 432.208 1565.55 432.352 1566.41 432.448C1567.37 432.544 1568.48 432.592 1569.72 432.592C1572.99 432.592 1575.77 431.68 1578.08 429.856C1580.38 428.032 1582.4 425.2 1584.12 421.36ZM1705.31 403.648C1709.15 403.648 1712.85 402.88 1716.4 401.344C1719.95 399.808 1723.27 397.552 1726.34 394.576L1732.96 401.776C1729.12 405.424 1724.8 408.256 1720 410.272C1715.2 412.288 1710.21 413.296 1705.03 413.296C1699.94 413.296 1695.14 412.336 1690.63 410.416C1686.11 408.496 1682.23 405.856 1678.96 402.496C1675.7 399.136 1673.11 395.152 1671.19 390.544C1669.27 385.936 1668.31 381.04 1668.31 375.856C1668.31 370.672 1669.27 365.824 1671.19 361.312C1673.11 356.704 1675.7 352.72 1678.96 349.36C1682.23 346 1686.11 343.36 1690.63 341.44C1695.14 339.424 1699.94 338.416 1705.03 338.416C1710.21 338.416 1715.25 339.424 1720.15 341.44C1725.14 343.456 1729.51 346.24 1733.25 349.792L1726.48 357.568C1723.6 354.592 1720.29 352.288 1716.55 350.656C1712.8 349.024 1709.01 348.208 1705.17 348.208C1701.52 348.208 1698.07 348.928 1694.8 350.368C1691.54 351.808 1688.71 353.776 1686.31 356.272C1684 358.768 1682.18 361.696 1680.83 365.056C1679.49 368.416 1678.82 372.016 1678.82 375.856C1678.82 379.792 1679.49 383.488 1680.83 386.944C1682.27 390.304 1684.15 393.232 1686.45 395.728C1688.85 398.128 1691.68 400.048 1694.95 401.488C1698.21 402.928 1701.67 403.648 1705.31 403.648ZM1755.67 339.856V383.344C1755.67 389.68 1757.5 394.72 1761.14 398.464C1764.79 402.208 1769.69 404.08 1775.83 404.08C1780.15 404.08 1783.99 403.12 1787.35 401.2C1790.81 399.184 1793.59 396.4 1795.7 392.848V339.856H1806.36V412H1795.7V403.648C1792.92 406.912 1789.61 409.36 1785.77 410.992C1782.02 412.624 1777.8 413.44 1773.1 413.44C1764.84 413.44 1758.12 410.848 1752.94 405.664C1747.75 400.48 1745.16 393.76 1745.16 385.504V339.856H1755.67ZM1817.13 402.064L1823.61 395.152C1826.88 398.224 1830.53 400.624 1834.56 402.352C1838.69 403.984 1842.86 404.8 1847.09 404.8C1852.85 404.8 1857.55 403.6 1861.2 401.2C1864.85 398.8 1866.67 395.68 1866.67 391.84C1866.67 388.768 1865.57 386.368 1863.36 384.64C1861.25 382.816 1857.89 381.568 1853.28 380.896L1840.75 379.168C1833.55 378.112 1828.17 376 1824.62 372.832C1821.17 369.568 1819.44 365.2 1819.44 359.728C1819.44 353.68 1821.98 348.688 1827.07 344.752C1832.16 340.72 1838.64 338.704 1846.51 338.704C1851.69 338.704 1856.59 339.472 1861.2 341.008C1865.9 342.544 1870.46 344.944 1874.88 348.208L1869.26 355.408C1865.23 352.72 1861.29 350.704 1857.45 349.36C1853.71 348.016 1849.87 347.344 1845.93 347.344C1841.04 347.344 1837.01 348.448 1833.84 350.656C1830.77 352.864 1829.23 355.744 1829.23 359.296C1829.23 362.368 1830.29 364.768 1832.4 366.496C1834.51 368.128 1837.92 369.28 1842.62 369.952L1855.15 371.68C1862.35 372.64 1867.73 374.8 1871.28 378.16C1874.93 381.424 1876.75 385.792 1876.75 391.264C1876.75 394.336 1875.98 397.264 1874.45 400.048C1873.01 402.736 1870.94 405.088 1868.25 407.104C1865.66 409.024 1862.59 410.56 1859.04 411.712C1855.49 412.768 1851.65 413.296 1847.52 413.296C1841.57 413.296 1835.95 412.336 1830.67 410.416C1825.49 408.4 1820.97 405.616 1817.13 402.064ZM1896.27 395.872V348.928H1880.71V339.856H1896.27V321.568L1906.78 318.832V339.856H1928.52V348.928H1906.78V393.136C1906.78 396.976 1907.64 399.76 1909.37 401.488C1911.1 403.12 1913.93 403.936 1917.87 403.936C1919.88 403.936 1921.66 403.792 1923.19 403.504C1924.83 403.216 1926.55 402.736 1928.38 402.064V411.424C1926.55 412.096 1924.49 412.576 1922.19 412.864C1919.98 413.152 1917.82 413.296 1915.71 413.296C1909.47 413.296 1904.67 411.808 1901.31 408.832C1897.95 405.856 1896.27 401.536 1896.27 395.872ZM1934.37 375.856C1934.37 370.672 1935.33 365.776 1937.25 361.168C1939.17 356.56 1941.76 352.576 1945.03 349.216C1948.39 345.856 1952.32 343.216 1956.83 341.296C1961.35 339.376 1966.15 338.416 1971.23 338.416C1976.32 338.416 1981.07 339.376 1985.49 341.296C1990 343.216 1993.89 345.856 1997.15 349.216C2000.51 352.576 2003.15 356.56 2005.07 361.168C2006.99 365.776 2007.95 370.672 2007.95 375.856C2007.95 381.136 2006.99 386.08 2005.07 390.688C2003.15 395.296 2000.51 399.28 1997.15 402.64C1993.89 406 1990 408.64 1985.49 410.56C1981.07 412.48 1976.32 413.44 1971.23 413.44C1966.15 413.44 1961.35 412.48 1956.83 410.56C1952.32 408.64 1948.39 406 1945.03 402.64C1941.76 399.28 1939.17 395.296 1937.25 390.688C1935.33 386.08 1934.37 381.136 1934.37 375.856ZM1971.23 403.936C1974.88 403.936 1978.29 403.216 1981.46 401.776C1984.72 400.336 1987.51 398.368 1989.81 395.872C1992.21 393.28 1994.08 390.304 1995.43 386.944C1996.77 383.488 1997.44 379.792 1997.44 375.856C1997.44 371.92 1996.77 368.272 1995.43 364.912C1994.08 361.456 1992.21 358.48 1989.81 355.984C1987.51 353.488 1984.72 351.52 1981.46 350.08C1978.29 348.64 1974.88 347.92 1971.23 347.92C1967.59 347.92 1964.13 348.64 1960.87 350.08C1957.7 351.52 1954.91 353.488 1952.51 355.984C1950.21 358.48 1948.34 361.456 1946.9 364.912C1945.55 368.272 1944.88 371.92 1944.88 375.856C1944.88 379.792 1945.55 383.488 1946.9 386.944C1948.24 390.304 1950.07 393.28 1952.37 395.872C1954.77 398.368 1957.6 400.336 1960.87 401.776C1964.13 403.216 1967.59 403.936 1971.23 403.936ZM2022.76 412V339.856H2033.42V347.776C2036.1 344.704 2039.22 342.4 2042.78 340.864C2046.33 339.232 2050.26 338.416 2054.58 338.416C2059.58 338.416 2064.04 339.616 2067.98 342.016C2072.01 344.32 2075.13 347.488 2077.34 351.52C2080.31 347.104 2083.86 343.84 2087.99 341.728C2092.22 339.52 2096.92 338.416 2102.1 338.416C2109.88 338.416 2116.22 341.008 2121.11 346.192C2126.1 351.376 2128.6 358.096 2128.6 366.352V412H2118.09V368.512C2118.09 362.176 2116.41 357.136 2113.05 353.392C2109.69 349.648 2105.13 347.776 2099.37 347.776C2095.43 347.776 2091.83 348.784 2088.57 350.8C2085.3 352.816 2082.52 355.744 2080.22 359.584C2080.41 360.64 2080.55 361.744 2080.65 362.896C2080.84 363.952 2080.94 365.104 2080.94 366.352V412H2070.42V368.512C2070.42 362.176 2068.74 357.136 2065.38 353.392C2062.02 349.648 2057.51 347.776 2051.85 347.776C2048.01 347.776 2044.5 348.688 2041.34 350.512C2038.26 352.24 2035.62 354.832 2033.42 358.288V412H2022.76ZM2207.28 404.368C2203.25 407.344 2199.02 409.6 2194.61 411.136C2190.29 412.576 2185.53 413.296 2180.35 413.296C2175.17 413.296 2170.27 412.336 2165.66 410.416C2161.15 408.496 2157.21 405.856 2153.85 402.496C2150.59 399.136 2148 395.2 2146.08 390.688C2144.16 386.08 2143.2 381.136 2143.2 375.856C2143.2 370.672 2144.11 365.824 2145.93 361.312C2147.85 356.8 2150.4 352.864 2153.57 349.504C2156.73 346.144 2160.48 343.504 2164.8 341.584C2169.21 339.664 2173.87 338.704 2178.77 338.704C2183.57 338.704 2188.03 339.664 2192.16 341.584C2196.38 343.504 2199.98 346.144 2202.96 349.504C2206.03 352.864 2208.43 356.8 2210.16 361.312C2211.98 365.824 2212.89 370.672 2212.89 375.856V379.168H2153.71C2154.48 386.272 2157.41 392.176 2162.49 396.88C2167.58 401.584 2173.68 403.936 2180.78 403.936C2184.53 403.936 2188.17 403.36 2191.73 402.208C2195.28 401.056 2198.25 399.424 2200.65 397.312L2207.28 404.368ZM2178.48 348.064C2172.24 348.064 2166.81 350.176 2162.21 354.4C2157.69 358.624 2154.96 364.048 2154 370.672H2202.24C2201.28 364.336 2198.54 359.008 2194.03 354.688C2189.61 350.272 2184.43 348.064 2178.48 348.064ZM2227.79 412V339.856H2238.45V350.08C2240.56 346.336 2243.34 343.456 2246.8 341.44C2250.25 339.328 2254.19 338.272 2258.61 338.272C2259.95 338.272 2261.15 338.368 2262.21 338.56C2263.26 338.656 2264.32 338.896 2265.37 339.28V349.072C2264.13 348.688 2262.88 348.4 2261.63 348.208C2260.38 347.92 2259.13 347.776 2257.89 347.776C2253.47 347.776 2249.58 349.072 2246.22 351.664C2242.86 354.16 2240.27 357.808 2238.45 362.608V412H2227.79ZM2269.38 402.064L2275.86 395.152C2279.13 398.224 2282.78 400.624 2286.81 402.352C2290.94 403.984 2295.11 404.8 2299.34 404.8C2305.1 404.8 2309.8 403.6 2313.45 401.2C2317.1 398.8 2318.92 395.68 2318.92 391.84C2318.92 388.768 2317.82 386.368 2315.61 384.64C2313.5 382.816 2310.14 381.568 2305.53 380.896L2293 379.168C2285.8 378.112 2280.42 376 2276.87 372.832C2273.42 369.568 2271.69 365.2 2271.69 359.728C2271.69 353.68 2274.23 348.688 2279.32 344.752C2284.41 340.72 2290.89 338.704 2298.76 338.704C2303.94 338.704 2308.84 339.472 2313.45 341.008C2318.15 342.544 2322.71 344.944 2327.13 348.208L2321.51 355.408C2317.48 352.72 2313.54 350.704 2309.7 349.36C2305.96 348.016 2302.12 347.344 2298.18 347.344C2293.29 347.344 2289.26 348.448 2286.09 350.656C2283.02 352.864 2281.48 355.744 2281.48 359.296C2281.48 362.368 2282.54 364.768 2284.65 366.496C2286.76 368.128 2290.17 369.28 2294.87 369.952L2307.4 371.68C2314.6 372.64 2319.98 374.8 2323.53 378.16C2327.18 381.424 2329 385.792 2329 391.264C2329 394.336 2328.23 397.264 2326.7 400.048C2325.26 402.736 2323.19 405.088 2320.5 407.104C2317.91 409.024 2314.84 410.56 2311.29 411.712C2307.74 412.768 2303.9 413.296 2299.77 413.296C2293.82 413.296 2288.2 412.336 2282.92 410.416C2277.74 408.4 2273.22 405.616 2269.38 402.064Z" fill="#8D0E0E"/>
</svg>
